<?xml version="1.0" encoding="utf-8"?>
<!-- Generator: Adobe Illustrator 28.1.0, SVG Export Plug-In . SVG Version: 6.00 Build 0)  -->
<svg version="1.1" id="Layer_1" xmlns="http://www.w3.org/2000/svg" xmlns:xlink="http://www.w3.org/1999/xlink" x="0px" y="0px"
	 viewBox="0 0 256 256" style="enable-background:new 0 0 256 256;" xml:space="preserve">
<style type="text/css">
	.st0{fill:#6666FF;}
</style>
<path class="st0" d="M178.6,94.1l-30.6-28V47.9l30.6-28.7l55.7,25.4l-8.5-16.9L174.4,1.2l-29,21.9l-4.2-5.2l-19.2,5.4V44H96.6
	c-2.6-7.6-7.2-13.8-13.8-18.7c-6.6-4.9-14.2-7.3-22.6-7.3c-10.9,0-20.1,3.8-27.7,11.4S21,46.1,21,57c0,7.2,1.9,13.9,5.7,20.2
	c3.8,6.3,8.6,11.1,14.5,14.3l33.2,125.2c0,0-13.2,3.1-18.5,5.4c-5.3,2.4-11,5.6-11,5.6v28.1h142.2v-28.5c0,0-5.7-2.8-10.6-5.2
	c-6.1-2.9-19.9-5.4-19.9-5.4L91.4,79.8c1.3-1.7,2.3-3.4,3.1-4.9c0.8-1.5,1.5-3.1,2.1-4.9h25.4v20.6l18.2,5.4l5.2-5.2l29,21.9
	l52.1-27.1l8.5-16.9L178.6,94.1z M69.4,66.3c-2.5,2.5-5.6,3.8-9.3,3.8c-3.7,0-6.8-1.2-9.3-3.7c-2.5-2.5-3.8-5.6-3.8-9.3
	c0-3.7,1.3-6.8,3.8-9.3c2.5-2.5,5.6-3.8,9.3-3.8c3.7,0,6.8,1.3,9.3,3.8c2.5,2.5,3.7,5.6,3.7,9.3C73.1,60.7,71.9,63.8,69.4,66.3z"/>
</svg>
